# xmcd
#
# Track frame offsets: 
#        150
#        5703
#        39878
#        49745
#        60862
#        65110
#        71028
#        98822
#        108083
#        127333
#        133019
#        139368
#        161200
#        171876
#        190224
#        194037
#        199639
#        206011
#        235138
#        243840
#        261985
#        267022
#        271827
#        295375
#        309868
#        324971
#
# Disc length: 4388 seconds
#
# Revision: 0
# Processed by: cddbd v1.5.2PL0 Copyright (c) Steve Scherf et al.
# Submitted via: ExactAudioCopy v0.99pb5
#
DISCID=8a11221a
DTITLE=Hank Williams  - The Complete Mother's Best Recordings 
DYEAR=2010
DGENRE=Country
TTITLE0=Introduction
TTITLE1=Where the Old Red River Flows
TTITLE2=Don Helms and the Drifting Cowboys Over Moonlit Waters
TTITLE3=How Can You Refuse Him Now
TTITLE4=Closing
TTITLE5=Introduction
TTITLE6=Alabama Waltz
TTITLE7=Jerry Rivers and the Drifting Cowboys Fire on the Mountain
TTITLE8=Lord Build Me a Cabin
TTITLE9=Closing
TTITLE10=Introduction
TTITLE11=Nobody's Lonesome for Me
TTITLE12=Don Helms, Sammy Pruett and the Drifting Cowboys Twin Guitar Po
TTITLE12=lka
TTITLE13=Gathering Flowers for the Master's Bouquet
TTITLE14=Jerry Rivers and the Drifting Cowboys Eighth of January
TTITLE15=Closing
TTITLE16=Introduction
TTITLE17=The Blind Child's Prayer
TTITLE18=Don Helms and the Drifting Cowboys Blue Steel Blues
TTITLE19=When God Dips His Love in My Heart
TTITLE20=Closing
TTITLE21=Introduction
TTITLE22=Mansion on the Hill
TTITLE23=Audrey Williams and the Drifting Cowboys I Like that Kind
TTITLE24=Audrey Williams and the Drifting Cowboys How Can You Refuse Him
TTITLE24=Now
TTITLE25=Closing
EXTD=
EXTT0=
EXTT1=
EXTT2=
EXTT3=
EXTT4=
EXTT5=
EXTT6=
EXTT7=
EXTT8=
EXTT9=
EXTT10=
EXTT11=
EXTT12=
EXTT13=
EXTT14=
EXTT15=
EXTT16=
EXTT17=
EXTT18=
EXTT19=
EXTT20=
EXTT21=
EXTT22=
EXTT23=
EXTT24=
EXTT25=
PLAYORDER=
